<svg xmlns="http://www.w3.org/2000/svg" viewBox="0 0 512 512" width="100%" height="100%">
  <!-- White background layer to guarantee a pristine white 'f' inside barcodes -->
  <circle cx="256" cy="256" r="256" fill="#ffffff" />
  
  <!-- Official Facebook Blue layer with the 'f' precisely cut out -->
  <path fill="#1877f2" d="M512 256C512 114.6 397.4 0 256 0S0 114.6 0 256c0 120.5 83.3 221.3 196 248.5V328h-59v-72h59v-55c0-58.2 35.6-90 87.6-90 24.9 0 46.3 1.9 52.5 2.7v60.8l-36 0c-28.2 0-33.7 13.4-33.7 33v48.5h67.3l-8.8 72h-58.5v176.5C428.7 477.3 512 376.5 512 256z" />
</svg>